<mxfile host="app.diagrams.net" modified="2023-12-14T19:24:25.771Z" agent="Mozilla/5.0 (X11; Linux x86_64; rv:102.0) Gecko/20100101 Firefox/102.0" etag="GJ8XmjAuwlWhqTiMlfuA" version="22.1.8" type="github">
  <diagram name="Page-1" id="80d4a630-b321-0f5e-ff81-c5a36ef4752d">
    <mxGraphModel dx="1290" dy="584" grid="1" gridSize="10" guides="1" tooltips="1" connect="1" arrows="1" fold="1" page="1" pageScale="1" pageWidth="1100" pageHeight="850" background="none" math="0" shadow="0">
      <root>
        <mxCell id="0" />
        <mxCell id="1" parent="0" />
        <mxCell id="byDCLwdgfMisaz-PWpIw-18" value="" style="shape=ext;double=1;rounded=1;whiteSpace=wrap;html=1;" vertex="1" parent="1">
          <mxGeometry x="20" y="40" width="390" height="200" as="geometry" />
        </mxCell>
        <mxCell id="byDCLwdgfMisaz-PWpIw-30" value="" style="edgeStyle=orthogonalEdgeStyle;rounded=0;orthogonalLoop=1;jettySize=auto;html=1;" edge="1" parent="1" source="byDCLwdgfMisaz-PWpIw-4" target="byDCLwdgfMisaz-PWpIw-15">
          <mxGeometry relative="1" as="geometry" />
        </mxCell>
        <mxCell id="byDCLwdgfMisaz-PWpIw-4" value="" style="image;sketch=0;aspect=fixed;html=1;points=[];align=center;fontSize=12;image=img/lib/mscae/Docker.svg;" vertex="1" parent="1">
          <mxGeometry x="520" y="405" width="50" height="41" as="geometry" />
        </mxCell>
        <mxCell id="byDCLwdgfMisaz-PWpIw-5" value="Drone" style="shape=image;verticalLabelPosition=bottom;labelBackgroundColor=#ffffff;verticalAlign=top;aspect=fixed;imageAspect=0;image=https://upload.wikimedia.org/wikipedia/commons/thumb/0/0f/UAV_land_sensing_or_monitoring.svg/176px-UAV_land_sensing_or_monitoring.svg.png;" vertex="1" parent="1">
          <mxGeometry x="70" y="80" width="120" height="122.73" as="geometry" />
        </mxCell>
        <mxCell id="byDCLwdgfMisaz-PWpIw-6" value="Wi-Fi" style="image;html=1;image=img/lib/clip_art/networking/Wireless_Router_128x128.png;fontSize=13;fillColor=#004C99;gradientColor=#66FFFF;" vertex="1" parent="1">
          <mxGeometry x="240" y="250" width="80" height="80" as="geometry" />
        </mxCell>
        <mxCell id="byDCLwdgfMisaz-PWpIw-7" value="" style="verticalLabelPosition=bottom;html=1;verticalAlign=top;align=center;strokeColor=none;fillColor=#00BEF2;shape=mxgraph.azure.virtual_machine_feature;pointerEvents=1;" vertex="1" parent="1">
          <mxGeometry x="370" y="400" width="140" height="120" as="geometry" />
        </mxCell>
        <mxCell id="byDCLwdgfMisaz-PWpIw-8" value="" style="shape=flexArrow;endArrow=classic;html=1;rounded=0;edgeStyle=orthogonalEdgeStyle;" edge="1" parent="1">
          <mxGeometry width="50" height="50" relative="1" as="geometry">
            <mxPoint x="620" y="440" as="sourcePoint" />
            <mxPoint x="860" y="380" as="targetPoint" />
          </mxGeometry>
        </mxCell>
        <mxCell id="byDCLwdgfMisaz-PWpIw-9" value="" style="shape=flexArrow;endArrow=classic;html=1;rounded=0;edgeStyle=orthogonalEdgeStyle;" edge="1" parent="1">
          <mxGeometry width="50" height="50" relative="1" as="geometry">
            <mxPoint x="339.48" y="330" as="sourcePoint" />
            <mxPoint x="399.48" y="380" as="targetPoint" />
          </mxGeometry>
        </mxCell>
        <mxCell id="byDCLwdgfMisaz-PWpIw-10" value="" style="html=1;verticalLabelPosition=bottom;align=center;labelBackgroundColor=#ffffff;verticalAlign=top;strokeWidth=2;strokeColor=#0080F0;shadow=0;dashed=0;shape=mxgraph.ios7.icons.smartphone;" vertex="1" parent="1">
          <mxGeometry x="340" y="110" width="18" height="30" as="geometry" />
        </mxCell>
        <mxCell id="byDCLwdgfMisaz-PWpIw-11" value="&lt;div&gt;RTMP&lt;/div&gt;&lt;div&gt;&lt;br&gt;&lt;/div&gt;" style="text;html=1;strokeColor=none;fillColor=none;align=center;verticalAlign=middle;whiteSpace=wrap;rounded=0;" vertex="1" parent="1">
          <mxGeometry x="340" y="290" width="60" height="30" as="geometry" />
        </mxCell>
        <mxCell id="byDCLwdgfMisaz-PWpIw-12" value="RTSP" style="text;html=1;strokeColor=none;fillColor=none;align=center;verticalAlign=middle;whiteSpace=wrap;rounded=0;" vertex="1" parent="1">
          <mxGeometry x="670" y="450" width="60" height="30" as="geometry" />
        </mxCell>
        <mxCell id="byDCLwdgfMisaz-PWpIw-14" value="" style="endArrow=classic;startArrow=classic;html=1;rounded=0;edgeStyle=orthogonalEdgeStyle;" edge="1" parent="1">
          <mxGeometry width="50" height="50" relative="1" as="geometry">
            <mxPoint x="190" y="130" as="sourcePoint" />
            <mxPoint x="310" y="130" as="targetPoint" />
          </mxGeometry>
        </mxCell>
        <UserObject label="https://github.com/bluenviron/mediamtx#rtmp-cameras-and-servers" link="https://github.com/bluenviron/mediamtx#rtmp-cameras-and-servers" id="byDCLwdgfMisaz-PWpIw-15">
          <mxCell style="text;whiteSpace=wrap;" vertex="1" parent="1">
            <mxGeometry x="260" y="530" width="390" height="40" as="geometry" />
          </mxCell>
        </UserObject>
        <mxCell id="byDCLwdgfMisaz-PWpIw-16" value="Controle Drone" style="text;html=1;strokeColor=none;fillColor=none;align=center;verticalAlign=middle;whiteSpace=wrap;rounded=0;" vertex="1" parent="1">
          <mxGeometry x="319" y="150" width="60" height="30" as="geometry" />
        </mxCell>
        <mxCell id="byDCLwdgfMisaz-PWpIw-19" value="RTMP&lt;br&gt;e &lt;br&gt;WiFi" style="text;html=1;strokeColor=none;fillColor=none;align=center;verticalAlign=middle;whiteSpace=wrap;rounded=0;" vertex="1" parent="1">
          <mxGeometry x="220" y="140" width="60" height="30" as="geometry" />
        </mxCell>
        <mxCell id="byDCLwdgfMisaz-PWpIw-20" value="&lt;pre&gt;&lt;span class=&quot;pl-ent&quot;&gt;source&lt;/span&gt;: &lt;span class=&quot;pl-s&quot;&gt;rtmp://IP-drone&lt;/span&gt;&lt;/pre&gt;" style="text;whiteSpace=wrap;html=1;" vertex="1" parent="1">
          <mxGeometry x="390" y="268" width="230" height="60" as="geometry" />
        </mxCell>
        <mxCell id="byDCLwdgfMisaz-PWpIw-21" value="vlc --network-caching=50 rtsp://IP-host-docker:8554/mystream" style="text;whiteSpace=wrap;html=1;" vertex="1" parent="1">
          <mxGeometry x="730" y="450" width="340" height="60" as="geometry" />
        </mxCell>
        <mxCell id="byDCLwdgfMisaz-PWpIw-22" value="" style="shape=flexArrow;endArrow=classic;html=1;rounded=0;edgeStyle=orthogonalEdgeStyle;" edge="1" parent="1" source="byDCLwdgfMisaz-PWpIw-18">
          <mxGeometry width="50" height="50" relative="1" as="geometry">
            <mxPoint x="140" y="250" as="sourcePoint" />
            <mxPoint x="220" y="290" as="targetPoint" />
            <Array as="points">
              <mxPoint x="140" y="290" />
            </Array>
          </mxGeometry>
        </mxCell>
        <mxCell id="byDCLwdgfMisaz-PWpIw-23" value="" style="verticalLabelPosition=bottom;html=1;verticalAlign=top;align=center;strokeColor=none;fillColor=#00BEF2;shape=mxgraph.azure.virtual_machine_feature;pointerEvents=1;" vertex="1" parent="1">
          <mxGeometry x="790" y="230" width="140" height="120" as="geometry" />
        </mxCell>
        <mxCell id="byDCLwdgfMisaz-PWpIw-24" value="Hosts ou serviços consumindo o RTSP" style="text;html=1;strokeColor=none;fillColor=none;align=center;verticalAlign=middle;whiteSpace=wrap;rounded=0;" vertex="1" parent="1">
          <mxGeometry x="830" y="180" width="60" height="30" as="geometry" />
        </mxCell>
        <mxCell id="byDCLwdgfMisaz-PWpIw-26" value="Cenário Existente" style="text;strokeColor=none;fillColor=none;align=left;verticalAlign=middle;spacingLeft=4;spacingRight=4;overflow=hidden;points=[[0,0.5],[1,0.5]];portConstraint=eastwest;rotatable=0;whiteSpace=wrap;html=1;" vertex="1" parent="1">
          <mxGeometry x="170" y="50" width="110" height="30" as="geometry" />
        </mxCell>
        <mxCell id="byDCLwdgfMisaz-PWpIw-27" value="" style="shape=curlyBracket;whiteSpace=wrap;html=1;rounded=1;labelPosition=left;verticalLabelPosition=middle;align=right;verticalAlign=middle;" vertex="1" parent="1">
          <mxGeometry x="90" y="245" width="20" height="325" as="geometry" />
        </mxCell>
        <mxCell id="byDCLwdgfMisaz-PWpIw-28" value="" style="shape=curlyBracket;whiteSpace=wrap;html=1;rounded=1;flipH=1;labelPosition=right;verticalLabelPosition=middle;align=left;verticalAlign=middle;" vertex="1" parent="1">
          <mxGeometry x="660" y="250" width="20" height="320" as="geometry" />
        </mxCell>
        <mxCell id="byDCLwdgfMisaz-PWpIw-29" value="Cenário queremos testar" style="text;strokeColor=none;fillColor=none;align=left;verticalAlign=middle;spacingLeft=4;spacingRight=4;overflow=hidden;points=[[0,0.5],[1,0.5]];portConstraint=eastwest;rotatable=0;whiteSpace=wrap;html=1;" vertex="1" parent="1">
          <mxGeometry x="300" y="245" width="180" height="30" as="geometry" />
        </mxCell>
      </root>
    </mxGraphModel>
  </diagram>
</mxfile>
